<mxfile host="app.diagrams.net" modified="2020-11-17T08:51:55.606Z" agent="5.0 (Windows NT 10.0; WOW64) AppleWebKit/537.36 (KHTML, like Gecko) Chrome/70.0.3538.25 Safari/537.36 Core/1.70.3776.400 QQBrowser/10.6.4212.400" etag="xMtKnMR6HqummqSoF5ZZ" version="13.9.9" type="github">
  <diagram id="_Yijx8tot8jmZ_iRR2_A" name="Service">
    <mxGraphModel dx="1381" dy="769" grid="1" gridSize="10" guides="1" tooltips="1" connect="1" arrows="1" fold="1" page="1" pageScale="1" pageWidth="3300" pageHeight="4681" math="0" shadow="0">
      <root>
        <mxCell id="0" />
        <mxCell id="1" parent="0" />
      </root>
    </mxGraphModel>
  </diagram>
</mxfile>
